<?xml version="1.0" encoding="UTF-8"?>
<svg version="1.1" xmlns="http://www.w3.org/2000/svg" width="371" height="136">
<path d="M0 0 C122.43 0 244.86 0 371 0 C371 44.88 371 89.76 371 136 C248.57 136 126.14 136 0 136 C0 91.12 0 46.24 0 0 Z " fill="#FDFBFC" transform="translate(0,0)"/>
<path d="M0 0 C1.0236264 0.00424484 1.0236264 0.00424484 2.06793213 0.00857544 C4.23817807 0.01973152 6.40800471 0.04482693 8.578125 0.0703125 C10.05337944 0.08034824 11.52864037 0.08947306 13.00390625 0.09765625 C16.61211442 0.11965563 20.22007875 0.15415367 23.828125 0.1953125 C21.52991783 7.87311131 19.19525272 15.53846616 16.828125 23.1953125 C16.48136719 24.3296875 16.13460937 25.4640625 15.77734375 26.6328125 C11.68887628 39.89574476 7.23660619 53.03566716 2.828125 66.1953125 C-9.051875 66.1953125 -20.931875 66.1953125 -33.171875 66.1953125 C-30.91922905 54.93208273 -30.91922905 54.93208273 -29.75488281 50.85668945 C-29.4941095 49.93906326 -29.23333618 49.02143707 -28.96466064 48.07600403 C-28.68757263 47.12150864 -28.41048462 46.16701324 -28.125 45.18359375 C-27.83131531 44.17113083 -27.53763062 43.15866791 -27.23504639 42.11552429 C-26.61571444 39.99120341 -25.99370854 37.86766042 -25.36914062 35.74487305 C-24.73674294 33.58380064 -24.11240803 31.42035275 -23.49609375 29.25463867 C-22.59839676 26.10052299 -21.67696661 22.95421488 -20.75 19.80859375 C-20.48100891 18.84802567 -20.21201782 17.88745758 -19.93487549 16.89778137 C-17.95183328 10.31015255 -15.3131644 4.64075485 -9.18896484 1.0243988 C-6.12201398 -0.23621285 -3.29908435 -0.02704168 0 0 Z " fill="#CB2728" transform="translate(106.171875,16.8046875)"/>
<path d="M0 0 C4.30495015 -0.09935088 8.60928183 -0.17169268 12.91503906 -0.21972656 C14.37772252 -0.23976332 15.84032666 -0.26700104 17.30273438 -0.30175781 C19.4129601 -0.35063225 21.52212136 -0.37304659 23.6328125 -0.390625 C24.90012207 -0.41157227 26.16743164 -0.43251953 27.47314453 -0.45410156 C32.66180855 0.21396677 35.48031164 2.52575481 39.16357422 6.09887695 C41.81430283 10.28640794 43.0191443 14.67787579 44.3828125 19.41796875 C44.68315399 20.43039139 44.98349548 21.44281403 45.29293823 22.48591614 C45.92516648 24.62516324 46.55184851 26.76605626 47.17333984 28.90844727 C48.11762972 32.16210486 49.07870843 35.41041471 50.04296875 38.65820312 C50.65724795 40.74449809 51.27056036 42.83107801 51.8828125 44.91796875 C52.16617462 45.87873825 52.44953674 46.83950775 52.7414856 47.82939148 C53.00871429 48.75347305 53.27594299 49.67755463 53.55126953 50.62963867 C53.78347198 51.42730148 54.01567444 52.22496429 54.25491333 53.04679871 C55.3346283 57.32632185 56.13441654 61.67208272 57 66 C45.12 66 33.24 66 21 66 C15.43368107 51.52757079 15.43368107 51.52757079 13.625 45 C11.73985992 38.35309005 9.64476151 31.79678335 7.4375 25.25 C0 3.1619678 0 3.1619678 0 0 Z " fill="#CB2627" transform="translate(0,17)"/>
<path d="M0 0 C3.55396233 1.35639391 5.90906356 3.64001344 8.578125 6.2578125 C9.58593965 7.22271375 10.59505272 8.18626068 11.60546875 9.1484375 C12.09901855 9.62087891 12.59256836 10.09332031 13.10107422 10.58007812 C15.52804306 12.83077806 18.07737899 14.91443126 20.640625 17.0078125 C18.76973893 24.05025355 16.76037206 31.04774398 14.69091797 38.03393555 C12.94778686 43.93103454 11.25786758 49.84238182 9.578125 55.7578125 C7.36582738 63.54082693 5.07458153 71.29073857 2.640625 79.0078125 C2.310625 79.0078125 1.980625 79.0078125 1.640625 79.0078125 C1.59124351 74.62957333 1.5549146 70.25148104 1.53076172 65.87304688 C1.52069457 64.3831093 1.50703982 62.89319153 1.48974609 61.40332031 C1.46552847 59.26362222 1.45414936 57.12418497 1.4453125 54.984375 C1.43483887 53.69611816 1.42436523 52.40786133 1.41357422 51.08056641 C1.640625 48.0078125 1.640625 48.0078125 3.640625 46.0078125 C3.80739782 42.42437274 3.80739782 42.42437274 3.640625 39.0078125 C0.72410326 38.84100141 0.72410326 38.84100141 -2.359375 39.0078125 C-4.6085658 40.83484477 -4.6085658 40.83484477 -4.609375 43.5078125 C-4.6085658 46.18078023 -4.6085658 46.18078023 -2.359375 48.0078125 C-2.13232422 50.98876953 -2.13232422 50.98876953 -2.1640625 54.765625 C-2.1668924 55.42867645 -2.16972229 56.09172791 -2.17263794 56.77487183 C-2.18384065 58.89436833 -2.20894449 61.01344354 -2.234375 63.1328125 C-2.24440472 64.56900432 -2.25353059 66.00520275 -2.26171875 67.44140625 C-2.28378 70.96367878 -2.31831006 74.48570453 -2.359375 78.0078125 C-5.17506811 75.19211939 -5.63499228 71.88442323 -6.609375 68.1328125 C-7.05023211 66.49038739 -7.49301154 64.84847733 -7.9375 63.20703125 C-8.16888672 62.35157715 -8.40027344 61.49612305 -8.63867188 60.61474609 C-9.81179214 56.37132528 -11.08355931 52.15878611 -12.359375 47.9453125 C-12.73328369 46.70309937 -12.73328369 46.70309937 -13.11474609 45.43579102 C-14.35007349 41.33419942 -15.59590237 37.23603432 -16.8515625 33.140625 C-17.31269974 31.61724795 -17.7736463 30.09381316 -18.234375 28.5703125 C-18.44964844 27.8786499 -18.66492187 27.1869873 -18.88671875 26.47436523 C-20.98594328 19.48940415 -20.98594328 19.48940415 -20.359375 16.0078125 C-18.453125 13.796875 -18.453125 13.796875 -15.859375 11.6328125 C-14.49232422 10.48039063 -14.49232422 10.48039063 -13.09765625 9.3046875 C-12.19402344 8.54671875 -11.29039063 7.78875 -10.359375 7.0078125 C-9.61042969 6.29109375 -8.86148438 5.574375 -8.08984375 4.8359375 C-7.41566406 4.19140625 -6.74148437 3.546875 -6.046875 2.8828125 C-5.45261719 2.30273438 -4.85835937 1.72265625 -4.24609375 1.125 C-2.359375 0.0078125 -2.359375 0.0078125 0 0 Z " fill="#CDA149" transform="translate(65.359375,0.9921875)"/>
<path d="M0 0 C17.6744186 -0.58914729 17.6744186 -0.58914729 24 4 C27.26291209 7.56881009 27.52252256 11.11483835 27.3515625 15.78515625 C26.65101097 20.19863091 24.34014429 22.92636168 20.9375 25.65234375 C16.80529272 27.54810374 13.16747502 27.32433319 8.6875 27.1875 C5.820625 27.125625 2.95375 27.06375 0 27 C0 18.09 0 9.18 0 0 Z " fill="#2F4889" transform="translate(140,17)"/>
<path d="M0 0 C4.43041256 2.13609177 7.16159481 4.40398702 9 9 C9.715328 13.76885333 9.48847963 17.05793214 7.25 21.375 C2.99672779 26.33715092 0.02586548 27.71982727 -6.375 28.3125 C-11.97502235 27.82973945 -14.72748217 25.43995438 -18.375 21.3125 C-20.4746637 17.0324163 -20.83081358 13.68276744 -20 9 C-15.58554288 0.17108576 -9.28622356 -1.22725422 0 0 Z " fill="#2E4889" transform="translate(336,17)"/>
<path d="M0 0 C4.46403531 2.11454304 7.0831264 4.42080195 9 9 C9.57270846 14.24982757 8.78172199 17.52937537 6 22 C3.1463776 25.2995009 1.16115335 26.7730975 -3.26953125 27.23828125 C-9.05034894 27.40699943 -12.51856577 27.04422113 -17 23 C-20.33271032 19.2229283 -20.61993863 15.38537908 -20.49609375 10.51171875 C-19.66789838 6.31857211 -17.19763024 3.70887329 -14 1 C-9.81612181 -1.0919391 -4.55616307 -0.42881535 0 0 Z " fill="#2C4688" transform="translate(184,56)"/>
<path d="M0 0 C2.84625 -0.103125 5.6925 -0.20625 8.625 -0.3125 C9.95265381 -0.38078003 9.95265381 -0.38078003 11.30712891 -0.45043945 C15.49984343 -0.52357368 18.20213361 -0.30837087 21.5234375 2.39453125 C24.21348357 5.22459549 24.91102998 5.99908731 25.25 9.8125 C24.89607733 14.325014 23.15105731 16.84894269 20 20 C20.3609375 20.62648438 20.721875 21.25296875 21.09375 21.8984375 C21.78984375 23.12433594 21.78984375 23.12433594 22.5 24.375 C22.9640625 25.18710938 23.428125 25.99921875 23.90625 26.8359375 C25 29 25 29 25 31 C22.36 31 19.72 31 17 31 C16.16151196 29.54462432 15.32936066 28.08559627 14.5 26.625 C14.0359375 25.81289062 13.571875 25.00078125 13.09375 24.1640625 C12 22 12 22 12 20 C10.35 20 8.7 20 7 20 C7 23.63 7 27.26 7 31 C4.69 31 2.38 31 0 31 C0 20.77 0 10.54 0 0 Z " fill="#CB2728" transform="translate(239,104)"/>
<path d="M0 0 C7 0 7 0 9.765625 2.66796875 C10.61683563 3.82450493 11.444586 4.99861659 12.25 6.1875 C12.67023437 6.76564453 13.09046875 7.34378906 13.5234375 7.93945312 C15.87396597 11.21023566 17.91943957 14.53239928 20 18 C20.33 12.06 20.66 6.12 21 0 C23.31 0 25.62 0 28 0 C28 10.23 28 20.46 28 31 C21 31 21 31 18.7421875 29.05859375 C18.12601563 28.19363281 17.50984375 27.32867187 16.875 26.4375 C16.21242188 25.53128906 15.54984375 24.62507813 14.8671875 23.69140625 C14.25101563 22.80324219 13.63484375 21.91507813 13 21 C12.46632813 20.26652344 11.93265625 19.53304687 11.3828125 18.77734375 C10.23552717 17.19901619 9.11429031 15.60179232 8 14 C7.67 19.61 7.34 25.22 7 31 C4.69 31 2.38 31 0 31 C0 20.77 0 10.54 0 0 Z " fill="#CA2223" transform="translate(50,104)"/>
<path d="M0 0 C2.51625 -0.061875 5.0325 -0.12375 7.625 -0.1875 C8.79603271 -0.22846802 8.79603271 -0.22846802 9.99072266 -0.27026367 C14.70383139 -0.32590205 17.94661674 0.34132926 22 3 C23.0625 5.875 23.0625 5.875 23 9 C21.5625 11.875 21.5625 11.875 20 14 C20.99 14.33 21.98 14.66 23 15 C24.43735246 17.87470493 24.38172649 19.81894588 24 23 C21.83474883 25.47077741 20.11085796 26.83893797 16.80761719 27.31787109 C14.2529609 27.39366635 11.7419155 27.34828857 9.1875 27.25 C6.155625 27.1675 3.12375 27.085 0 27 C0 18.09 0 9.18 0 0 Z " fill="#2E4789" transform="translate(212,17)"/>
<path d="M0 0 C1.95677715 1.21347841 3.81855203 2.47499584 5.6484375 3.87109375 C3.9984375 5.52109375 2.3484375 7.17109375 0.6484375 8.87109375 C0.1328125 8.54109375 -0.3828125 8.21109375 -0.9140625 7.87109375 C-4.26558846 6.49610874 -6.76121637 6.48641381 -10.3515625 6.87109375 C-12.95471244 8.22410655 -12.95471244 8.22410655 -14.3515625 10.87109375 C-14.93808054 15.48992328 -14.92498909 17.72424057 -12.8515625 21.87109375 C-10.24093604 23.95959492 -9.48477861 24.25114955 -6.2890625 24.43359375 C-2.35364583 24.27317708 -2.35364583 24.27317708 -0.3515625 21.87109375 C-0.0215625 21.21109375 0.3084375 20.55109375 0.6484375 19.87109375 C-1.9915625 19.87109375 -4.6315625 19.87109375 -7.3515625 19.87109375 C-7.3515625 17.89109375 -7.3515625 15.91109375 -7.3515625 13.87109375 C-2.4015625 13.87109375 2.5484375 13.87109375 7.6484375 13.87109375 C8.45200893 22.57645089 8.45200893 22.57645089 4.9609375 26.80859375 C1.29954912 30.50420071 -1.52989219 31.70242057 -6.7265625 32.18359375 C-12.30420957 31.70276211 -16.4986296 30.16501184 -20.2265625 25.93359375 C-23.09289055 21.80270921 -23.09289055 21.80270921 -23.3515625 18.87109375 C-23.4753125 17.63359375 -23.5990625 16.39609375 -23.7265625 15.12109375 C-23.64215196 10.09397696 -21.61415566 6.60449149 -18.3515625 2.87109375 C-13.14609284 -1.7272864 -6.35121235 -3.04900394 0 0 Z " fill="#CC2B2C" transform="translate(107.3515625,104.12890625)"/>
<path d="M0 0 C6 0 6 0 8.16015625 1.94140625 C9.10181641 3.23884766 9.10181641 3.23884766 10.0625 4.5625 C10.73410156 5.46871094 11.40570313 6.37492187 12.09765625 7.30859375 C12.72542969 8.19675781 13.35320312 9.08492187 14 10 C14.53496094 10.73347656 15.06992187 11.46695313 15.62109375 12.22265625 C16.76581405 13.80191626 17.88613923 15.39882514 19 17 C19.33 11.39 19.66 5.78 20 0 C22.31 0 24.62 0 27 0 C27 10.23 27 20.46 27 31 C20 31 20 31 18.11962891 29.56298828 C17.65991699 28.90540527 17.20020508 28.24782227 16.7265625 27.5703125 C16.21222656 26.85746094 15.69789063 26.14460938 15.16796875 25.41015625 C14.40419922 24.27900391 14.40419922 24.27900391 13.625 23.125 C13.09261719 22.37863281 12.56023437 21.63226563 12.01171875 20.86328125 C8.33664773 15.67329545 8.33664773 15.67329545 7 13 C6.67 18.94 6.34 24.88 6 31 C4.02 31 2.04 31 0 31 C0 20.77 0 10.54 0 0 Z " fill="#CB2627" transform="translate(296,104)"/>
<path d="M0 0 C7 0 7 0 8.89624023 1.56054688 C9.36231689 2.27275391 9.82839355 2.98496094 10.30859375 3.71875 C10.82744141 4.48574219 11.34628906 5.25273438 11.88085938 6.04296875 C12.39455078 6.85378906 12.90824219 7.66460937 13.4375 8.5 C13.97826172 9.31082031 14.51902344 10.12164062 15.07617188 10.95703125 C16.40568452 12.95718301 17.70577151 14.97683823 19 17 C19.33 11.39 19.66 5.78 20 0 C22.31 0 24.62 0 27 0 C27 10.23 27 20.46 27 31 C20 31 20 31 18.01196289 29.34765625 C17.5039917 28.59355469 16.99602051 27.83945313 16.47265625 27.0625 C15.90869141 26.25039062 15.34472656 25.43828125 14.76367188 24.6015625 C14.20228516 23.74304688 13.64089844 22.88453125 13.0625 22 C12.47404297 21.14148438 11.88558594 20.28296875 11.27929688 19.3984375 C9.83166735 17.27995526 8.41296533 15.14175797 7 13 C6.67 18.94 6.34 24.88 6 31 C4.02 31 2.04 31 0 31 C0 20.77 0 10.54 0 0 Z " fill="#CB2728" transform="translate(146,104)"/>
<path d="M0 0 C-0.66 1.65 -1.32 3.3 -2 5 C-6 5 -6 5 -8 4 C-12.33327174 3.50944093 -14.32000344 3.52255561 -17.9375 6.0625 C-20.23534372 8.8960646 -20.23534372 8.8960646 -20.625 12.5 C-19.82883761 16.95850936 -18.69186542 18.40783917 -15 21 C-11.41456334 21.75045506 -11.41456334 21.75045506 -8 21 C-6.01760473 19.13875077 -6.01760473 19.13875077 -5 17 C-7.31 17 -9.62 17 -12 17 C-12 15.02 -12 13.04 -12 11 C-7.38 11 -2.76 11 2 11 C2.48231511 18.95819936 2.48231511 18.95819936 0.4375 23.375 C-3.51464009 27.63115087 -7.25264206 28.77811328 -12.9375 29.5 C-17.80963796 29.29146491 -21.36475332 27.13383335 -25 24 C-28.51032704 19.50239349 -28.68185833 14.53100511 -28.55078125 8.984375 C-27.6270267 3.97906664 -24.88456204 1.11744265 -21 -2 C-13.76513862 -6.45222239 -6.68957884 -3.98528101 0 0 Z " fill="#CB292A" transform="translate(358,107)"/>
<path d="M0 0 C2.35125 -0.061875 4.7025 -0.12375 7.125 -0.1875 C7.85348145 -0.21481201 8.58196289 -0.24212402 9.33251953 -0.27026367 C14.0010667 -0.32914283 17.04070582 0.57390431 21 3 C23.51012963 5.51012963 23.29721609 6.46805237 23.3125 9.9375 C23.32925781 10.81277344 23.34601563 11.68804687 23.36328125 12.58984375 C22.93419779 15.43655875 22.10065393 16.13958043 20 18 C20.3171632 21.171632 21.77929188 24.07030051 23 27 C20.25 27.375 20.25 27.375 17 27 C15.64721885 25.01310269 14.31431695 23.01254782 13 21 C9.86734521 20.0311941 9.86734521 20.0311941 7 20 C7 22.64 7 25.28 7 28 C4.69 28 2.38 28 0 28 C0 18.76 0 9.52 0 0 Z " fill="#38508E" transform="translate(290,17)"/>
<path d="M0 0 C2.35125 -0.061875 4.7025 -0.12375 7.125 -0.1875 C7.85348145 -0.21481201 8.58196289 -0.24212402 9.33251953 -0.27026367 C13.99472075 -0.32906279 17.07847104 0.50395264 21 3 C23.46751239 6.70126859 23.30721156 8.62223532 23 13 C21.98263229 15.76142665 21.63829259 16.68085371 19 18 C20.19899698 21.0831351 21.47700477 24.06279492 23 27 C19.75 27.375 19.75 27.375 16 27 C14.61876037 25.03277992 13.28511874 23.03131672 12 21 C8.86734521 20.0311941 8.86734521 20.0311941 6 20 C6 22.31 6 24.62 6 27 C4.02 27 2.04 27 0 27 C0 18.09 0 9.18 0 0 Z " fill="#2B4588" transform="translate(171,17)"/>
<path d="M0 0 C7.26 0 14.52 0 22 0 C22 1.98 22 3.96 22 6 C17.05 6 12.1 6 7 6 C7 7.98 7 9.96 7 12 C11.29 12 15.58 12 20 12 C20 13.98 20 15.96 20 18 C15.71 18 11.42 18 7 18 C7 20.31 7 22.62 7 25 C11.95 25 16.9 25 22 25 C22 26.98 22 28.96 22 31 C14.74 31 7.48 31 0 31 C0 20.77 0 10.54 0 0 Z " fill="#CB2728" transform="translate(21,104)"/>
<path d="M0 0 C6.93 0 13.86 0 21 0 C21 1.98 21 3.96 21 6 C16.38 6 11.76 6 7 6 C7 7.98 7 9.96 7 12 C10.96 12 14.92 12 19 12 C19 13.98 19 15.96 19 18 C15.04 18 11.08 18 7 18 C7 20.31 7 22.62 7 25 C11.62 25 16.24 25 21 25 C21 26.98 21 28.96 21 31 C14.07 31 7.14 31 0 31 C0 20.77 0 10.54 0 0 Z " fill="#CA2324" transform="translate(182,104)"/>
<path d="M0 0 C6.93 0 13.86 0 21 0 C21 1.98 21 3.96 21 6 C16.05 6 11.1 6 6 6 C6 7.98 6 9.96 6 12 C10.29 12 14.58 12 19 12 C19 13.98 19 15.96 19 18 C14.71 18 10.42 18 6 18 C6 20.31 6 22.62 6 25 C10.95 25 15.9 25 21 25 C21 26.98 21 28.96 21 31 C14.07 31 7.14 31 0 31 C0 20.77 0 10.54 0 0 Z " fill="#CA2223" transform="translate(211,104)"/>
<path d="M0 0 C5.94 0 11.88 0 18 0 C18 1.98 18 3.96 18 6 C16.35 6 14.7 6 13 6 C13 12.27 13 18.54 13 25 C14.65 25 16.3 25 18 25 C18 26.98 18 28.96 18 31 C12.06 31 6.12 31 0 31 C0 29.02 0 27.04 0 25 C1.65 25 3.3 25 5 25 C5 18.73 5 12.46 5 6 C3.35 6 1.7 6 0 6 C0 4.02 0 2.04 0 0 Z " fill="#CB2627" transform="translate(270,104)"/>
<path d="M0 0 C5.94 0 11.88 0 18 0 C18 1.98 18 3.96 18 6 C16.35 6 14.7 6 13 6 C13 12.27 13 18.54 13 25 C14.65 25 16.3 25 18 25 C18 26.98 18 28.96 18 31 C12.06 31 6.12 31 0 31 C0 29.02 0 27.04 0 25 C1.65 25 3.3 25 5 25 C5 18.73 5 12.46 5 6 C3.35 6 1.7 6 0 6 C0 4.02 0 2.04 0 0 Z " fill="#CB2627" transform="translate(120,104)"/>
<path d="M0 0 C6.6 0 13.2 0 20 0 C20 1.65 20 3.3 20 5 C15.38 5 10.76 5 6 5 C6 6.98 6 8.96 6 11 C9.96 11 13.92 11 18 11 C18 12.32 18 13.64 18 15 C14.04 15 10.08 15 6 15 C6 17.31 6 19.62 6 22 C10.62 22 15.24 22 20 22 C20 23.65 20 25.3 20 27 C13.4 27 6.8 27 0 27 C0 18.09 0 9.18 0 0 Z " fill="#2B4588" transform="translate(238,56)"/>
<path d="M0 0 C1.70349609 0.03673828 1.70349609 0.03673828 3.44140625 0.07421875 C6.4375 0.3125 6.4375 0.3125 9.4375 1.3125 C8.7775 2.9625 8.1175 4.6125 7.4375 6.3125 C6.73882812 6.2403125 6.04015625 6.168125 5.3203125 6.09375 C4.41023437 6.0009375 3.50015625 5.908125 2.5625 5.8125 C1.65757812 5.7196875 0.75265625 5.626875 -0.1796875 5.53125 C-2.49563211 5.28202705 -2.49563211 5.28202705 -4.5625 5.3125 C-4.4385595 7.29197498 -4.4385595 7.29197498 -3.5625 9.3125 C-1.37711725 10.31177996 -1.37711725 10.31177996 1.25 10.8125 C8.13876161 12.6554162 8.13876161 12.6554162 10.4375 16.3125 C10.9375 19.3125 10.9375 19.3125 10.4375 22.3125 C8.5704009 24.61525556 7.08102259 25.99073871 4.4375 27.3125 C2.48200744 27.43507461 0.52179382 27.48802388 -1.4375 27.5 C-2.48679688 27.51417969 -3.53609375 27.52835938 -4.6171875 27.54296875 C-7.49797071 27.31754937 -9.12490208 26.80214317 -11.5625 25.3125 C-10.9025 23.6625 -10.2425 22.0125 -9.5625 20.3125 C-8.5725 20.6425 -7.5825 20.9725 -6.5625 21.3125 C-4.83454648 21.38052967 -3.10414635 21.39745645 -1.375 21.375 C-0.47394531 21.36597656 0.42710937 21.35695313 1.35546875 21.34765625 C2.38607422 21.33025391 2.38607422 21.33025391 3.4375 21.3125 C3.4375 20.3225 3.4375 19.3325 3.4375 18.3125 C2.76203125 18.14234375 2.0865625 17.9721875 1.390625 17.796875 C-8.19053235 15.19390162 -8.19053235 15.19390162 -10.5625 11.3125 C-11.1155344 7.44125923 -11.29917376 5.31189115 -8.94140625 2.11328125 C-5.80296618 -0.26245089 -3.89462428 -0.12849159 0 0 Z " fill="#2D4789" transform="translate(150.5625,55.6875)"/>
<path d="M0 0 C2.3542263 1.45185691 3.34729074 2.72040103 5 5 C3.68 5.99 2.36 6.98 1 8 C0.46375 7.67 -0.0725 7.34 -0.625 7 C-3.67193922 5.71707822 -5.72032701 5.59004088 -9 6 C-11.52006844 7.43661311 -11.52006844 7.43661311 -13 10 C-13.4495791 13.59663278 -13.36454848 16.05217395 -12.0625 19.4375 C-8.71466805 21.97373633 -5.05042688 21.42820804 -1 21 C0.34016941 20.69531191 1.67659518 20.37079452 3 20 C3.66 21.32 4.32 22.64 5 24 C0.183863 27.95611254 -3.77067872 28.53701046 -10 28 C-14.61862787 25.42422676 -18.30640263 23.0807921 -20 18 C-20.54508569 13.30868877 -20.44834676 9.89669352 -18.3125 5.625 C-13.09058618 -0.30257785 -7.721289 -1.29652829 0 0 Z " fill="#30498A" transform="translate(267,17)"/>
<path d="M0 0 C1.04929688 -0.02578125 2.09859375 -0.0515625 3.1796875 -0.078125 C6.43056586 0.28404182 7.74850767 1.06867854 10.125 3.25 C9.465 4.57 8.805 5.89 8.125 7.25 C7.63 7.085 7.135 6.92 6.625 6.75 C2.47354217 5.91970843 -1.97975936 5.30237968 -5.875 7.25 C-7.50647635 10.5129527 -7.5043407 13.73559179 -6.875 17.25 C-5.41502013 19.87716577 -5.41502013 19.87716577 -2.875 21.25 C1.33911291 21.78797186 4.31038362 21.04511359 8.125 19.25 C9.115 20.57 10.105 21.89 11.125 23.25 C6.55078613 27.20607686 2.85647785 27.97875917 -3.17578125 27.78125 C-7.49611075 26.93093913 -10.12267794 24.59086891 -12.875 21.25 C-14.87265403 17.25469193 -14.52443255 12.58153639 -13.875 8.25 C-10.42562548 2.14726047 -6.89035042 0.10108094 0 0 Z " fill="#2E4789" transform="translate(210.875,55.75)"/>
<path d="M0 0 C3.125 -0.625 3.125 -0.625 7 0 C9.48849283 3.08859397 11.20528902 6.47682577 13 10 C13.33 10.33 13.66 10.66 14 11 C14.43570312 10.2059375 14.87140625 9.411875 15.3203125 8.59375 C15.91585938 7.5728125 16.51140625 6.551875 17.125 5.5 C17.70507812 4.4790625 18.28515625 3.458125 18.8828125 2.40625 C21 0 21 0 24.2421875 -0.34375 C25.15226562 -0.2303125 26.06234375 -0.116875 27 0 C26.06385433 1.72990025 25.12602042 3.45888696 24.1875 5.1875 C23.66542969 6.15042969 23.14335937 7.11335938 22.60546875 8.10546875 C21 11 21 11 19.34375 13.5 C17.78794433 16.39452218 17.50915598 18.54801069 17.3125 21.8125 C17.24675781 22.78832031 17.18101562 23.76414062 17.11328125 24.76953125 C17.07589844 25.50558594 17.03851563 26.24164063 17 27 C14.69 27 12.38 27 10 27 C10.03222656 26.37996094 10.06445312 25.75992188 10.09765625 25.12109375 C9.98511735 16.5306247 6.47246924 10.97668377 1.93359375 3.9921875 C0 1 0 1 0 0 Z " fill="#354D8C" transform="translate(344,17)"/>
<path d="M0 0 C2.625 -0.5625 2.625 -0.5625 6 0 C8.69232401 3.00157744 12 6.82892393 12 11 C12.66 11 13.32 11 14 11 C14.2475 10.29875 14.495 9.5975 14.75 8.875 C16.21168498 5.51312454 17.63901664 2.82006346 20 0 C23.140625 -0.16796875 23.140625 -0.16796875 26 0 C25.06385433 1.72990025 24.12602042 3.45888696 23.1875 5.1875 C22.66542969 6.15042969 22.14335937 7.11335938 21.60546875 8.10546875 C20 11 20 11 18.34375 13.5 C16.78794433 16.39452218 16.50915598 18.54801069 16.3125 21.8125 C16.24675781 22.78832031 16.18101562 23.76414062 16.11328125 24.76953125 C16.07589844 25.50558594 16.03851563 26.24164063 16 27 C14.02 27 12.04 27 10 27 C10.03222656 26.45214844 10.06445312 25.90429688 10.09765625 25.33984375 C9.97832429 17.18549314 6.22603975 11.75095225 1.93359375 5.125 C0 2 0 2 0 0 Z " fill="#2D4789" transform="translate(289,56)"/>
<path d="M0 0 C7.59 0 15.18 0 23 0 C23 1.65 23 3.3 23 5 C20.03 5 17.06 5 14 5 C14 12.26 14 19.52 14 27 C12.02 27 10.04 27 8 27 C8 19.74 8 12.48 8 5 C5.36 5 2.72 5 0 5 C0 3.35 0 1.7 0 0 Z " fill="#2A4487" transform="translate(262,56)"/>
<path d="M0 0 C2.9375 2.0625 2.9375 2.0625 5 5 C5.65622237 9.08316143 5.37781677 11.22793965 3.5625 14.9375 C0.30777862 17.55715379 -1.77411083 17.72735916 -5.87109375 17.484375 C-8 17 -8 17 -10.5625 14.875 C-12.22531935 11.5493613 -12.4687539 9.67190556 -12 6 C-9.86676591 0.09258251 -5.90074724 -0.71215915 0 0 Z " fill="#F8F9FA" transform="translate(334,22)"/>
<path d="M0 0 C3.29291844 2.11084515 3.88775952 3.64347142 5.0625 7.375 C5 11 5 11 3 14.4375 C0 17 0 17 -3.5 17.6875 C-7.96171566 16.81109157 -9.42740402 15.74195779 -12 12 C-12.88059943 8.09909901 -12.59344124 4.98906873 -10.5 1.5 C-6.96932124 -0.61840725 -4.01603612 -0.79990863 0 0 Z " fill="#F9F9FB" transform="translate(182,61)"/>
<path d="M0 0 C0.33 0 0.66 0 1 0 C1 10.23 1 20.46 1 31 C2.98 31 4.96 31 7 31 C7 24.73 7 18.46 7 12 C11.31689497 16.31689497 14.38053708 20.37418684 17.4296875 25.53515625 C18.63364591 27.50374363 18.63364591 27.50374363 21 30 C23.31 30.33 25.62 30.66 28 31 C28 20.77 28 10.54 28 0 C28.33 0 28.66 0 29 0 C29 10.56 29 21.12 29 32 C19.43 32 9.86 32 0 32 C0 21.44 0 10.88 0 0 Z " fill="#F1D0D0" transform="translate(145,104)"/>
<path d="M0 0 C0.33 0 0.66 0 1 0 C1 10.23 1 20.46 1 31 C2.98 31 4.96 31 7 31 C7 24.73 7 18.46 7 12 C11.46671887 16.46671887 11.46671887 16.46671887 13.33203125 19.41796875 C13.73873047 20.03220703 14.14542969 20.64644531 14.56445312 21.27929688 C15.39838881 22.55434408 16.21873005 23.8383839 17.02539062 25.13085938 C17.43595703 25.74123047 17.84652344 26.35160156 18.26953125 26.98046875 C18.62635986 27.53629639 18.98318848 28.09212402 19.35083008 28.66479492 C21.56584912 30.69155776 21.56584912 30.69155776 28 31 C28 20.77 28 10.54 28 0 C28.33 0 28.66 0 29 0 C29 10.56 29 21.12 29 32 C19.43 32 9.86 32 0 32 C0 21.44 0 10.88 0 0 Z " fill="#F1D0D1" transform="translate(295,104)"/>
<path d="M0 0 C8.83928571 -0.66964286 8.83928571 -0.66964286 12.5625 2.0625 C15 5 15 5 15.6875 8.5 C15 12 15 12 13.125 14.9375 C8.58644572 17.93294582 5.37188068 17.35812538 0 17 C0 11.39 0 5.78 0 0 Z " fill="#F4F5F8" transform="translate(146,22)"/>
<path d="M0 0 C4.60259693 4.60259693 7.92861932 9.0935779 11.5234375 14.453125 C14.6177545 17.63529327 16.65046291 17.80950932 21 18 C21 18.33 21 18.66 21 19 C11.76 19 2.52 19 -7 19 C-7 18.67 -7 18.34 -7 18 C-4.69 18 -2.38 18 0 18 C0 12.06 0 6.12 0 0 Z " fill="#FAEFEF" transform="translate(57,117)"/>
<path d="M0 0 C1.98 0 3.96 0 6 0 C6 8.91 6 17.82 6 27 C4.02 27 2.04 27 0 27 C0 18.09 0 9.18 0 0 Z " fill="#244085" transform="translate(226,56)"/>
<path d="M0 0 C1.65 0 3.3 0 5 0 C5.83848804 1.45537568 6.67063934 2.91440373 7.5 4.375 C7.9640625 5.18710938 8.428125 5.99921875 8.90625 6.8359375 C10 9 10 9 10 11 C14.455 10.505 14.455 10.505 19 10 C19 10.66 19 11.32 19 12 C10.42 12 1.84 12 -7 12 C-7 11.67 -7 11.34 -7 11 C-4.69 11 -2.38 11 0 11 C0 7.37 0 3.74 0 0 Z " fill="#F7E5E5" transform="translate(246,124)"/>
<path d="M0 0 C7.33834586 -0.36090226 7.33834586 -0.36090226 10.0625 1.125 C11.495401 3.990802 10.84910305 5.99548152 10 9 C6.78548731 10.60725635 3.56387464 10.05748185 0 10 C0 6.7 0 3.4 0 0 Z " fill="#F3F3F6" transform="translate(177,22)"/>
<path d="M0 0 C6.625 -0.25 6.625 -0.25 10 2 C10.375 5 10.375 5 10 8 C6.3558226 10.4294516 4.28758728 10.16179575 0 10 C0 6.7 0 3.4 0 0 Z " fill="#F5F6F8" transform="translate(297,22)"/>
<path d="M0 0 C6.0546875 -0.1953125 6.0546875 -0.1953125 8 0 C10 2 10 2 10.25 4.5 C10 7 10 7 8 9 C5.31160615 9.26991906 2.70858064 9.08737357 0 9 C0 6.03 0 3.06 0 0 Z " fill="#F9ECED" transform="translate(246,110)"/>
<path d="M0 0 C1.62490954 -0.02698189 3.24994633 -0.04638757 4.875 -0.0625 C5.77992188 -0.07410156 6.68484375 -0.08570313 7.6171875 -0.09765625 C10 0 10 0 12 1 C11.125 5.875 11.125 5.875 10 7 C8.31391034 7.07205511 6.62499341 7.08386068 4.9375 7.0625 C4.01839844 7.05347656 3.09929687 7.04445313 2.15234375 7.03515625 C1.44207031 7.02355469 0.73179687 7.01195312 0 7 C0 4.69 0 2.38 0 0 Z " fill="#F5F6F9" transform="translate(218,33)"/>
<path d="M0 0 C10.23 0 20.46 0 31 0 C30.67 0.99 30.34 1.98 30 3 C19.77 2.67 9.54 2.34 -1 2 C-0.67 1.34 -0.34 0.68 0 0 Z " fill="#D04546" transform="translate(99,17)"/>
<path d="M0 0 C10.23 0 20.46 0 31 0 C31.33 0.66 31.66 1.32 32 2 C16.655 2.495 16.655 2.495 1 3 C0.67 2.01 0.34 1.02 0 0 Z " fill="#D04646" transform="translate(0,17)"/>
<path d="M0 0 C1.45792884 -0.05399736 2.91642712 -0.09279177 4.375 -0.125 C5.18710938 -0.14820312 5.99921875 -0.17140625 6.8359375 -0.1953125 C9 0 9 0 11 2 C10.67 3.32 10.34 4.64 10 6 C6.7 6 3.4 6 0 6 C0 4.02 0 2.04 0 0 Z " fill="#F9F9FB" transform="translate(218,22)"/>
<path d="M0 0 C2.625 0.375 2.625 0.375 5 1 C5 2.98 5 4.96 5 7 C3.02 7 1.04 7 -1 7 C-1.625 4.625 -1.625 4.625 -2 2 C-1.34 1.34 -0.68 0.68 0 0 Z " fill="#38508E" transform="translate(198,37)"/>
<path d="M0 0 C1.67542976 0.28604898 3.34385343 0.61781233 5 1 C5.6875 2.8125 5.6875 2.8125 6 5 C4.8125 6.8125 4.8125 6.8125 3 8 C0.8125 7.6875 0.8125 7.6875 -1 7 C-1.04254356 5.00045254 -1.04080783 2.99958364 -1 1 C-0.67 0.67 -0.34 0.34 0 0 Z " fill="#374F8E" transform="translate(240,37)"/>
<path d="M0 0 C2.625 0.375 2.625 0.375 5 1 C5.042721 2.66611905 5.04063832 4.33382885 5 6 C4 7 4 7 1.4375 7.0625 C0.2309375 7.0315625 0.2309375 7.0315625 -1 7 C-1.625 4.625 -1.625 4.625 -2 2 C-1.34 1.34 -0.68 0.68 0 0 Z " fill="#223F85" transform="translate(276,37)"/>
<path d="M0 0 C1.67542976 0.28604898 3.34385343 0.61781233 5 1 C4.401875 1.268125 3.80375 1.53625 3.1875 1.8125 C1.02775192 2.98493467 -0.35790256 4.19369282 -2 6 C-1.125 1.125 -1.125 1.125 0 0 Z " fill="#4C6198" transform="translate(276,37)"/>
</svg>
